M48
;DRILL file {KiCad (5.0.2)-1} date 26/02/2019 16:12:38
;FORMAT={-:-/ absolute / metric / decimal}
FMAT,2
METRIC,TZ
T1C0.800
T2C1.000
%
G90
G05
T1
X108.2Y-107.2
X119.3Y-97.5
X121.5Y-97.5
X122.9Y-86.4
X123.65Y-97.55
X125.8Y-102.55
X125.9Y-100.8
X125.95Y-107.1
X126.05Y-96.8
X126.3Y-98.95
X128.Y-98.1
X129.55Y-98.85
X130.05Y-93.25
X130.05Y-94.75
X131.55Y-93.25
X131.55Y-94.75
X132.541Y-102.6
X132.8Y-100.8
X133.3Y-89.3
X134.35Y-102.4
X135.7Y-96.4
X135.8Y-98.3
X135.8Y-101.3
X137.8Y-100.8
X139.85Y-100.1
T2
X111.25Y-83.85
X141.8Y-98.9
X146.15Y-116.5
X101.1Y-120.5
X110.7Y-120.2
X101.2Y-116.75
X146.75Y-107.85
X105.7Y-120.2
X132.5Y-106.5
X142.05Y-101.35
X140.7Y-120.2
X125.7Y-120.2
X107.25Y-115.625
X105.45Y-76.8
X101.2Y-86.75
X118.4Y-116.25
X115.25Y-97.45
X146.75Y-103.85
X107.35Y-90.85
X146.75Y-101.85
X118.7Y-89.25
X123.5Y-116.35
X141.85Y-96.6
X145.65Y-80.75
X120.7Y-120.2
X115.45Y-76.8
X101.2Y-101.75
X146.65Y-89.05
X116.6Y-93.45
X146.75Y-105.85
X145.7Y-120.2
X101.2Y-76.75
X110.45Y-76.8
X101.2Y-91.75
X118.2Y-102.05
X144.5Y-102.05
X119.8Y-84.55
X146.75Y-93.2
X134.65Y-82.4
X144.7Y-93.45
X146.15Y-84.8
X101.2Y-96.75
X125.45Y-76.8
X107.35Y-96.9
X113.95Y-102.
X146.75Y-95.2
X106.7Y-83.1
X146.75Y-91.2
X142.25Y-93.6
X135.7Y-120.2
X101.2Y-81.75
X130.45Y-76.8
X120.45Y-76.8
X101.2Y-111.75
X101.2Y-106.75
X118.65Y-110.2
X121.19Y-110.2
X123.73Y-110.2
X126.27Y-110.2
X128.81Y-110.2
X131.35Y-110.2
X104.5Y-107.16
X104.5Y-109.7
X146.15Y-113.2
X130.7Y-120.2
X115.7Y-120.2
X140.45Y-76.8
X145.45Y-76.8
X135.45Y-76.8
X138.7Y-97.35
X138.8Y-116.65
X146.75Y-109.85
X128.8Y-116.5
X144.05Y-96.55
T0
M30
